#tb 0: 1/25
#media_type 0: video
#codec_id 0: rawvideo
#dimensions 0: 352x288
#sar 0: 0/1
0,          0,          0,        1,   304128, 0xe0f082e5
0,          1,          1,        1,   304128, 0xad2ced4c
0,          2,          2,        1,   304128, 0x065bc0b4
0,          3,          3,        1,   304128, 0x42b3be87
0,          4,          4,        1,   304128, 0x77cce69e
0,          5,          5,        1,   304128, 0x63663cf5
0,          6,          6,        1,   304128, 0xc5f710f6
0,          7,          7,        1,   304128, 0x47653f00
0,          8,          8,        1,   304128, 0xb7a45e8d
0,          9,          9,        1,   304128, 0xa61cea87
0,         10,         10,        1,   304128, 0xb782434a
0,         11,         11,        1,   304128, 0xf77291fb
0,         12,         12,        1,   304128, 0x655365af
0,         13,         13,        1,   304128, 0x05f488e1
0,         14,         14,        1,   304128, 0xfe736926
0,         15,         15,        1,   304128, 0x1b4f4bab
0,         16,         16,        1,   304128, 0x82f12e17
0,         17,         17,        1,   304128, 0x696aa959
0,         18,         18,        1,   304128, 0xb17f18af
0,         19,         19,        1,   304128, 0x934e4a81
0,         20,         20,        1,   304128, 0x049c1b00
0,         21,         21,        1,   304128, 0xd4d33b66
0,         22,         22,        1,   304128, 0x79f5f67f
0,         23,         23,        1,   304128, 0xb3614c4e
0,         24,         24,        1,   304128, 0x21754098
0,         25,         25,        1,   304128, 0x696226b9
0,         26,         26,        1,   304128, 0xb3776a93
0,         27,         27,        1,   304128, 0x7aa12848
0,         28,         28,        1,   304128, 0x97b93147
0,         29,         29,        1,   304128, 0x54c995e1
0,         30,         30,        1,   304128, 0x56d5565d
0,         31,         31,        1,   304128, 0x95acd126
0,         32,         32,        1,   304128, 0xe2b78eee
0,         33,         33,        1,   304128, 0x951a614c
0,         34,         34,        1,   304128, 0xb3cf6ad5
0,         35,         35,        1,   304128, 0x4d7b3eee
0,         36,         36,        1,   304128, 0xf410a09d
0,         37,         37,        1,   304128, 0x48856e58
0,         38,         38,        1,   304128, 0x1d3f28ba
0,         39,         39,        1,   304128, 0x71c23050
0,         40,         40,        1,   304128, 0xd15d511a
0,         41,         41,        1,   304128, 0xf11c8f27
0,         42,         42,        1,   304128, 0x90ba303f
0,         43,         43,        1,   304128, 0x739f25f7
0,         44,         44,        1,   304128, 0x28c138bc
0,         45,         45,        1,   304128, 0x3b9d22c1
0,         46,         46,        1,   304128, 0xfb95ef79
0,         47,         47,        1,   304128, 0xab38eafe
0,         48,         48,        1,   304128, 0x3931085c
0,         49,         49,        1,   304128, 0xa7e9b100
